<svg width="1380" height="256" viewBox="0 0 1380 256" fill="none" xmlns="http://www.w3.org/2000/svg">
<g clip-path="url(#clip0_108_53)">
<path d="M196 0H60C26.8629 0 0 26.8629 0 60V196C0 229.137 26.8629 256 60 256H196C229.137 256 256 229.137 256 196V60C256 26.8629 229.137 0 196 0Z" fill="#262626"/>
<path d="M33.7158 100.208C33.7158 100.208 28.9814 96.7951 34.6627 92.2382L47.8994 80.4021C47.8994 80.4021 51.6869 76.4173 55.6915 79.8892L177.84 172.368V216.714C177.84 216.714 177.781 223.678 168.844 222.908L33.7158 100.208Z" fill="#2489CA"/>
<path d="M65.1997 128.792L33.7157 157.415C33.7157 157.415 30.4805 159.822 33.7157 164.123L48.3333 177.418C48.3333 177.418 51.8052 181.147 56.9341 176.905L90.3119 151.596L65.1997 128.792Z" fill="#1070B3"/>
<path d="M120.474 129.029L178.215 84.939L177.84 40.8299C177.84 40.8299 175.374 31.2032 167.148 36.2138L90.312 106.145L120.474 129.029Z" fill="#0877B9"/>
<path d="M168.844 222.968C172.198 226.4 176.262 225.276 176.262 225.276L221.259 203.103C227.019 199.177 226.21 194.305 226.21 194.305V61.8982C226.21 56.0788 220.252 54.0667 220.252 54.0667L181.253 35.267C172.731 30 167.148 36.2139 167.148 36.2139C167.148 36.2139 174.328 31.0455 177.84 40.83V215.905C177.84 217.109 177.583 218.292 177.071 219.358C176.045 221.429 173.816 223.362 168.47 222.553L168.844 222.968Z" fill="#3C99D4"/>
</g>
<path d="M477 0H341C307.863 0 281 26.8629 281 60V196C281 229.137 307.863 256 341 256H477C510.137 256 537 229.137 537 196V60C537 26.8629 510.137 0 477 0Z" fill="#262626"/>
<path d="M311.451 151.046C311.006 149.149 313.266 147.954 314.644 149.332L387.668 222.356C389.046 223.734 387.851 225.994 385.954 225.549C349.103 216.904 320.096 187.897 311.451 151.046ZM309.004 121.778C308.968 122.345 309.182 122.898 309.583 123.299L413.701 227.417C414.102 227.818 414.655 228.032 415.222 227.996C419.96 227.701 424.609 227.076 429.147 226.144C430.676 225.83 431.207 223.952 430.103 222.848L314.152 106.897C313.048 105.793 311.17 106.324 310.856 107.853C309.924 112.391 309.299 117.04 309.004 121.778ZM317.422 87.4108C317.089 88.1584 317.258 89.032 317.837 89.6108L447.389 219.163C447.968 219.742 448.842 219.911 449.589 219.578C453.161 217.987 456.623 216.193 459.96 214.21C461.064 213.554 461.235 212.037 460.327 211.129L325.871 76.6734C324.963 75.7652 323.446 75.9356 322.79 77.0398C320.807 80.3766 319.013 83.8386 317.422 87.4108ZM334.317 64.148C333.577 63.4078 333.531 62.2206 334.229 61.4398C352.559 40.9186 379.223 28 408.904 28C464.185 28 509 72.8146 509 128.096C509 157.777 496.081 184.441 475.56 202.771C474.78 203.469 473.592 203.423 472.852 202.683L334.317 64.148Z" fill="#5E6AD2"/>
<g clip-path="url(#clip1_108_53)">
<path d="M758 0H622C588.863 0 562 26.8629 562 60V196C562 229.137 588.863 256 622 256H758C791.137 256 818 229.137 818 196V60C818 26.8629 791.137 0 758 0Z" fill="#262626"/>
<path d="M690.001 30C634.779 30 590 74.7708 590 130.001C590 174.184 618.653 211.668 658.387 224.891C663.384 225.817 665.219 222.722 665.219 220.081C665.219 217.696 665.126 209.819 665.083 201.463C637.263 207.512 631.393 189.664 631.393 189.664C626.844 178.105 620.289 175.032 620.289 175.032C611.216 168.825 620.973 168.953 620.973 168.953C631.015 169.658 636.303 179.258 636.303 179.258C645.222 194.546 659.696 190.126 665.403 187.571C666.301 181.107 668.892 176.696 671.752 174.199C649.54 171.67 626.191 163.095 626.191 124.778C626.191 113.86 630.098 104.939 636.495 97.9362C635.456 95.4175 632.034 85.2465 637.464 71.4722C637.464 71.4722 645.861 68.7845 664.971 81.7226C672.948 79.5069 681.502 78.3958 690.001 78.3577C698.499 78.3958 707.061 79.5069 715.052 81.7226C734.139 68.7845 742.525 71.4722 742.525 71.4722C747.968 85.2465 744.544 95.4175 743.505 97.9362C749.917 104.939 753.797 113.86 753.797 124.778C753.797 163.187 730.403 171.644 708.135 174.119C711.722 177.223 714.918 183.308 714.918 192.638C714.918 206.018 714.802 216.787 714.802 220.081C714.802 222.742 716.602 225.86 721.671 224.878C761.383 211.64 790 174.169 790 130.001C790 74.7708 745.227 30 690.001 30ZM627.454 172.453C627.233 172.95 626.452 173.099 625.74 172.758C625.014 172.432 624.607 171.754 624.842 171.256C625.057 170.744 625.841 170.602 626.564 170.945C627.291 171.271 627.705 171.955 627.454 172.453ZM632.372 176.842C631.896 177.285 630.963 177.079 630.331 176.38C629.677 175.683 629.554 174.751 630.038 174.302C630.529 173.86 631.434 174.067 632.089 174.764C632.743 175.47 632.871 176.395 632.372 176.842ZM635.747 182.458C635.134 182.884 634.132 182.485 633.513 181.595C632.9 180.706 632.9 179.64 633.526 179.212C634.147 178.785 635.134 179.169 635.762 180.052C636.373 180.956 636.373 182.023 635.747 182.458ZM641.454 188.962C640.906 189.566 639.739 189.404 638.884 188.579C638.01 187.773 637.766 186.629 638.316 186.024C638.871 185.418 640.045 185.589 640.906 186.407C641.774 187.211 642.039 188.364 641.454 188.962ZM648.83 191.157C648.588 191.941 647.464 192.297 646.331 191.964C645.2 191.621 644.46 190.704 644.688 189.912C644.924 189.124 646.053 188.753 647.194 189.109C648.323 189.45 649.065 190.361 648.83 191.157ZM657.224 192.089C657.252 192.913 656.292 193.597 655.103 193.612C653.907 193.639 652.94 192.971 652.927 192.16C652.927 191.327 653.866 190.65 655.062 190.63C656.251 190.607 657.224 191.269 657.224 192.089ZM665.47 191.773C665.613 192.577 664.787 193.404 663.606 193.624C662.445 193.836 661.37 193.339 661.223 192.541C661.079 191.716 661.92 190.89 663.079 190.676C664.262 190.471 665.32 190.955 665.47 191.773Z" fill="white"/>
</g>
<g clip-path="url(#clip2_108_53)">
<path d="M1049 0H893C865.386 0 843 22.3858 843 50V206C843 233.614 865.386 256 893 256H1049C1076.61 256 1099 233.614 1099 206V50C1099 22.3858 1076.61 0 1049 0Z" fill="#262626"/>
<g filter="url(#filter0_f_108_53)">
<path d="M1022.6 218.75C1021.3 228.25 1011.95 235.7 1002.6 233.1C989.35 229.5 974 223.8 960.2 222.75L939 221.15C935.594 220.91 932.394 219.434 930 217L893.5 179.6C891.561 177.608 890.267 175.078 889.786 172.341C889.304 169.603 889.658 166.784 890.8 164.25C890.8 164.25 913.3 114.95 914.2 112.4C915 109.85 918.1 87.45 919.9 75.45C920.405 72.2637 921.994 69.3494 924.4 67.2L967.5 28.6C968.92 27.3262 970.585 26.3561 972.394 25.7491C974.202 25.1421 976.116 24.9111 978.017 25.0703C979.918 25.2295 981.766 25.7755 983.448 26.6748C985.131 27.5742 986.612 28.8078 987.8 30.3L1024.1 76.1C1026.13 78.7156 1027.22 81.9385 1027.2 85.25C1027.2 93.9 1027.95 111.75 1032.8 123.25C1037.61 133.593 1043.58 143.355 1050.6 152.35C1051.45 153.453 1051.95 154.784 1052.04 156.174C1052.13 157.563 1051.8 158.948 1051.1 160.15C1047.95 165.5 1041.65 175.8 1032.8 188.95C1027.2 197.992 1023.69 208.175 1022.55 218.75H1022.6Z" fill="black" fill-opacity="0.3"/>
</g>
<path d="M1022.95 217.15C1021.65 226.7 1012.3 234.15 1002.95 231.6C989.75 227.95 974.45 222.25 960.6 221.2L939.45 219.6C936.036 219.352 932.833 217.857 930.45 215.4L893.95 177.9C891.993 175.888 890.688 173.332 890.206 170.567C889.725 167.802 890.088 164.955 891.25 162.4C891.25 162.4 913.8 112.9 914.65 110.3C915.5 107.75 918.55 85.3001 920.35 73.2001C920.844 69.9958 922.434 67.0622 924.85 64.9001L967.95 26.1501C969.373 24.8791 971.041 23.9124 972.852 23.3095C974.662 22.7066 976.577 22.4801 978.478 22.644C980.379 22.8079 982.226 23.3587 983.907 24.2625C985.587 25.1664 987.065 26.4042 988.25 27.9001L1024.5 73.9001C1026.52 76.5193 1027.62 79.7398 1027.6 83.0501C1027.6 91.7501 1028.35 109.65 1033.15 121.2C1037.96 131.591 1043.93 141.404 1050.95 150.45C1051.82 151.553 1052.33 152.891 1052.43 154.29C1052.53 155.69 1052.21 157.087 1051.5 158.3C1048.3 163.7 1042.05 174 1033.15 187.25C1027.57 196.334 1024.08 206.549 1022.95 217.15Z" fill="#6C31E3"/>
<path d="M934.35 218.2C951.3 183.85 950.85 159.2 943.6 141.7C937 125.5 924.65 115.3 914.95 108.95C914.75 109.9 914.45 110.8 914.05 111.65L891.25 162.4C890.095 164.96 889.739 167.809 890.23 170.575C890.72 173.34 892.034 175.894 894 177.9L930.45 215.4C931.6 216.55 932.95 217.5 934.35 218.2Z" fill="url(#paint0_radial_108_53)"/>
<path d="M980.45 148.5C985 148.95 989.45 149.95 993.85 151.55C1007.75 156.75 1020.4 168.45 1030.85 191C1031.6 189.7 1032.35 188.45 1033.15 187.25C1039.54 177.773 1045.66 168.12 1051.5 158.3C1052.21 157.092 1052.55 155.698 1052.46 154.298C1052.37 152.898 1051.86 151.558 1051 150.45C1043.96 141.406 1037.97 131.594 1033.15 121.2C1028.35 109.7 1027.65 91.7499 1027.6 83.0499C1027.6 79.7499 1026.55 76.4999 1024.5 73.8999L988.25 27.8999L987.65 27.1499C990.3 35.8999 990.15 42.8999 988.5 49.2499C987 55.1499 984.2 60.4999 981.25 66.1499C980.25 68.0499 979.25 69.9999 978.3 71.9999C973.598 80.9805 970.902 90.8752 970.4 101C969.9 113.1 972.35 128.25 980.4 148.5H980.45Z" fill="url(#paint1_radial_108_53)"/>
<path d="M980.4 148.5C972.35 128.25 969.9 113.1 970.4 101C970.9 89.0001 974.4 80.0001 978.3 72.0001L981.3 66.1501C984.2 60.5001 986.95 55.1501 988.5 49.2501C990.341 41.9543 990.046 34.283 987.65 27.1501C985.163 24.4174 981.696 22.7788 978.006 22.5915C974.316 22.4042 970.701 23.6833 967.95 26.1501L924.85 64.9001C922.434 67.0623 920.844 69.9959 920.35 73.2001L915.1 108C915.1 108.35 915 108.65 914.95 109C924.65 115.3 936.95 125.5 943.6 141.65C944.9 144.85 946 148.2 946.8 151.85C957.726 148.82 969.088 147.67 980.4 148.45V148.5Z" fill="url(#paint2_radial_108_53)"/>
<path d="M1003 231.6C1012.3 234.15 1021.65 226.7 1022.95 217.1C1024.01 207.994 1026.71 199.153 1030.9 191C1020.4 168.45 1007.75 156.75 993.9 151.55C979.15 146.05 963.1 147.9 946.8 151.85C950.45 168.4 948.3 190.05 934.4 218.2C935.95 219 937.7 219.45 939.45 219.6L961.4 221.25C973.3 222.1 991.05 228.25 1003 231.6Z" fill="url(#paint3_radial_108_53)"/>
<path fill-rule="evenodd" clip-rule="evenodd" d="M970.5 100.25C969.95 112.25 971.45 125.95 979.5 146.15L977 145.9C969.75 124.85 968.15 114.05 968.7 101.9C969.2 89.75 973.15 80.4 977.05 72.4C978.05 70.4 980.35 66.65 981.35 64.75C984.25 59.1 986.2 56.15 987.85 51C990.25 43.8 989.75 40.4 989.45 37C991.3 49.25 984.25 59.9 978.95 70.75C974.043 79.8638 971.145 89.9226 970.45 100.25H970.5Z" fill="url(#paint4_radial_108_53)"/>
<path fill-rule="evenodd" clip-rule="evenodd" d="M946 142.55C947 144.75 947.85 146.55 948.45 149.3L946.3 149.8C945.45 146.6 944.8 144.3 943.55 141.55C936.25 124.4 924.55 115.55 915.05 109.05C926.55 115.25 938.4 125 946 142.55Z" fill="url(#paint5_radial_108_53)"/>
<path fill-rule="evenodd" clip-rule="evenodd" d="M948.55 151.5C952.55 170.25 948.05 194.1 934.8 217.3C945.9 194.3 951.3 172.25 946.8 151.8L948.55 151.45V151.5Z" fill="url(#paint6_radial_108_53)"/>
<path fill-rule="evenodd" clip-rule="evenodd" d="M994.35 149.75C1016.1 157.9 1024.5 175.75 1030.75 190.7C1023 175.1 1012.25 157.85 993.55 151.45C979.35 146.55 967.35 147.15 946.8 151.8L946.35 149.8C968.15 144.8 979.55 144.2 994.35 149.8V149.75Z" fill="url(#paint7_radial_108_53)"/>
</g>
<path d="M1330 0H1174C1146.39 0 1124 22.3858 1124 50V206C1124 233.614 1146.39 256 1174 256H1330C1357.61 256 1380 233.614 1380 206V50C1380 22.3858 1357.61 0 1330 0Z" fill="#262626"/>
<path fill-rule="evenodd" clip-rule="evenodd" d="M1210.67 150.33C1210.67 140.914 1218.47 133.333 1228.17 133.333C1237.86 133.333 1245.67 140.914 1245.67 150.33V192.169C1245.67 201.586 1237.86 209.167 1228.17 209.167C1218.47 209.167 1210.67 201.586 1210.67 192.169V150.33Z" fill="#E01E5A"/>
<path fill-rule="evenodd" clip-rule="evenodd" d="M1274.33 168.333C1264.91 168.333 1257.33 160.528 1257.33 150.833C1257.33 141.138 1264.91 133.333 1274.33 133.333H1316.17C1325.59 133.333 1333.17 141.138 1333.17 150.833C1333.17 160.528 1325.59 168.333 1316.17 168.333H1274.33Z" fill="#ECB22D"/>
<path fill-rule="evenodd" clip-rule="evenodd" d="M1257.33 62.8301C1257.33 53.4137 1265.14 45.8333 1274.83 45.8333C1284.53 45.8333 1292.33 53.4137 1292.33 62.8301V104.67C1292.33 114.086 1284.53 121.667 1274.83 121.667C1265.14 121.667 1257.33 114.086 1257.33 104.669V62.8301Z" fill="#2FB67C"/>
<path fill-rule="evenodd" clip-rule="evenodd" d="M1186.83 121.667C1177.41 121.667 1169.83 113.862 1169.83 104.167C1169.83 94.4717 1177.41 86.6667 1186.83 86.6667H1228.67C1238.09 86.6667 1245.67 94.4717 1245.67 104.167C1245.67 113.862 1238.09 121.667 1228.67 121.667H1186.83Z" fill="#36C5F1"/>
<path fill-rule="evenodd" clip-rule="evenodd" d="M1257.33 191.667C1257.33 201.362 1265.14 209.167 1274.83 209.167C1284.53 209.167 1292.33 201.362 1292.33 191.667C1292.33 181.972 1284.53 174.167 1274.83 174.167H1257.33V191.667Z" fill="#ECB22D"/>
<path fill-rule="evenodd" clip-rule="evenodd" d="M1315.67 121.667H1298.17V104.167C1298.17 94.4717 1305.97 86.6667 1315.67 86.6667C1325.36 86.6667 1333.17 94.4717 1333.17 104.167C1333.17 113.862 1325.36 121.667 1315.67 121.667Z" fill="#2FB67C"/>
<path fill-rule="evenodd" clip-rule="evenodd" d="M1187.33 133.333H1204.83V150.833C1204.83 160.528 1197.03 168.333 1187.33 168.333C1177.64 168.333 1169.83 160.528 1169.83 150.833C1169.83 141.138 1177.64 133.333 1187.33 133.333Z" fill="#E01E5A"/>
<path fill-rule="evenodd" clip-rule="evenodd" d="M1245.67 63.3333V80.8333H1228.17C1218.47 80.8333 1210.67 73.0283 1210.67 63.3333C1210.67 53.6383 1218.47 45.8333 1228.17 45.8333C1237.86 45.8333 1245.67 53.6383 1245.67 63.3333Z" fill="#36C5F1"/>
<defs>
<filter id="filter0_f_108_53" x="876.576" y="12.0215" width="188.478" height="234.602" filterUnits="userSpaceOnUse" color-interpolation-filters="sRGB">
<feFlood flood-opacity="0" result="BackgroundImageFix"/>
<feBlend mode="normal" in="SourceGraphic" in2="BackgroundImageFix" result="shape"/>
<feGaussianBlur stdDeviation="6.5" result="effect1_foregroundBlur_108_53"/>
</filter>
<radialGradient id="paint0_radial_108_53" cx="0" cy="0" r="1" gradientUnits="userSpaceOnUse" gradientTransform="translate(932.5 214.85) rotate(-104.545) scale(95.5628 63.5472)">
<stop stop-color="white" stop-opacity="0.4"/>
<stop offset="1" stop-opacity="0.1"/>
</radialGradient>
<radialGradient id="paint1_radial_108_53" cx="0" cy="0" r="1" gradientUnits="userSpaceOnUse" gradientTransform="translate(1013.8 175.65) rotate(-82.4659) scale(156.35 115.478)">
<stop stop-color="white" stop-opacity="0.6"/>
<stop offset="1" stop-color="white" stop-opacity="0.1"/>
</radialGradient>
<radialGradient id="paint2_radial_108_53" cx="0" cy="0" r="1" gradientUnits="userSpaceOnUse" gradientTransform="translate(938.25 148.15) rotate(-77.6806) scale(133.576 91.1112)">
<stop stop-color="white" stop-opacity="0.8"/>
<stop offset="1" stop-color="white" stop-opacity="0.4"/>
</radialGradient>
<radialGradient id="paint3_radial_108_53" cx="0" cy="0" r="1" gradientUnits="userSpaceOnUse" gradientTransform="translate(1003.7 232.1) rotate(-120.71) scale(77.3466 88.7531)">
<stop stop-color="white" stop-opacity="0.3"/>
<stop offset="1" stop-opacity="0.3"/>
</radialGradient>
<radialGradient id="paint4_radial_108_53" cx="0" cy="0" r="1" gradientUnits="userSpaceOnUse" gradientTransform="translate(993.35 74.95) rotate(102.037) scale(69.5288 47.074)">
<stop stop-color="white" stop-opacity="0"/>
<stop offset="1" stop-color="white" stop-opacity="0.2"/>
</radialGradient>
<radialGradient id="paint5_radial_108_53" cx="0" cy="0" r="1" gradientUnits="userSpaceOnUse" gradientTransform="translate(911.9 112.6) rotate(45.3951) scale(51.2665 108.897)">
<stop stop-color="white" stop-opacity="0.2"/>
<stop offset="1" stop-color="white" stop-opacity="0.4"/>
</radialGradient>
<radialGradient id="paint6_radial_108_53" cx="0" cy="0" r="1" gradientUnits="userSpaceOnUse" gradientTransform="translate(950.55 136.85) rotate(80.3803) scale(59.8415 127.328)">
<stop stop-color="white" stop-opacity="0.1"/>
<stop offset="1" stop-color="white" stop-opacity="0.3"/>
</radialGradient>
<radialGradient id="paint7_radial_108_53" cx="0" cy="0" r="1" gradientUnits="userSpaceOnUse" gradientTransform="translate(1030.2 185.85) rotate(-152.314) scale(91.4727 288.064)">
<stop stop-color="white" stop-opacity="0.2"/>
<stop offset="0.5" stop-color="white" stop-opacity="0.2"/>
<stop offset="1" stop-color="white" stop-opacity="0.3"/>
</radialGradient>
<clipPath id="clip0_108_53">
<rect width="256" height="256" fill="white"/>
</clipPath>
<clipPath id="clip1_108_53">
<rect width="256" height="256" fill="white" transform="translate(562)"/>
</clipPath>
<clipPath id="clip2_108_53">
<rect width="256" height="256" fill="white" transform="translate(843)"/>
</clipPath>
</defs>
</svg>
